<svg width="306" height="104" viewBox="0 0 306 104" fill="none" xmlns="http://www.w3.org/2000/svg">
<path d="M75.8312 84.9754C76.8755 85.5639 77.6961 86.3845 78.2929 87.4537C78.8897 88.523 79.1798 89.7331 79.1798 91.0924C79.1798 92.4518 78.8814 93.6702 78.2929 94.7311C77.6961 95.8004 76.8755 96.6292 75.8312 97.2177C74.7868 97.8145 73.6098 98.1129 72.3168 98.1129C71.1646 98.1129 70.1286 97.8642 69.2085 97.3835C68.2885 96.8945 67.5508 96.1899 66.9954 95.2616V97.9886H65.2134V78.5518H67.07V86.8321C67.6502 85.9452 68.3879 85.2655 69.2831 84.8014C70.1866 84.3372 71.1895 84.1051 72.3085 84.1051C73.6015 84.1051 74.7702 84.3952 75.8229 84.9837L75.8312 84.9754ZM74.8116 95.7921C75.5991 95.3445 76.2124 94.7146 76.66 93.894C77.1076 93.0734 77.3314 92.1368 77.3314 91.0924C77.3314 90.0481 77.1076 89.1115 76.66 88.2909C76.2124 87.4703 75.5991 86.8404 74.8116 86.3928C74.0242 85.9452 73.1539 85.7214 72.1924 85.7214C71.2309 85.7214 70.3358 85.9452 69.5566 86.3928C68.7775 86.8404 68.1641 87.4703 67.7248 88.2909C67.2855 89.1115 67.0535 90.0481 67.0535 91.0924C67.0535 92.1368 67.2773 93.0734 67.7248 93.894C68.1724 94.7146 68.7775 95.3445 69.5566 95.7921C70.3358 96.2397 71.2144 96.4635 72.1924 96.4635C73.1705 96.4635 74.0242 96.2397 74.8116 95.7921Z" fill="black"/>
<path d="M95.4006 84.2048V97.9888H93.6185V95.4774C93.1295 96.3145 92.4581 96.9693 91.6044 97.4335C90.7507 97.8976 89.7726 98.1297 88.6702 98.1297C86.8716 98.1297 85.4542 97.6241 84.4098 96.6212C83.3737 95.6183 82.8516 94.1429 82.8516 92.2034V84.2131H84.7082V92.021C84.7082 93.4715 85.0646 94.5739 85.7857 95.3199C86.4986 96.0741 87.5264 96.4471 88.8526 96.4471C90.3031 96.4471 91.4469 96.0078 92.2841 95.1209C93.1212 94.2424 93.5439 93.0156 93.5439 91.4408V84.2131H95.4006V84.2048Z" fill="black"/>
<path d="M101.103 97.632C100.084 97.3087 99.2799 96.9026 98.708 96.4136L99.5452 94.9465C100.125 95.4024 100.846 95.7754 101.717 96.0572C102.587 96.3473 103.499 96.4882 104.444 96.4882C105.704 96.4882 106.632 96.2892 107.237 95.8997C107.842 95.5101 108.141 94.9548 108.141 94.2337C108.141 93.7281 107.975 93.3302 107.643 93.0401C107.312 92.75 106.889 92.5345 106.383 92.3853C105.878 92.2361 105.206 92.0952 104.369 91.9543C103.25 91.7471 102.355 91.5316 101.667 91.3161C100.987 91.1006 100.407 90.7276 99.9264 90.2054C99.4457 89.6832 99.2053 88.9538 99.2053 88.0338C99.2053 86.8817 99.6861 85.9368 100.648 85.2074C101.609 84.478 102.944 84.105 104.659 84.105C105.546 84.105 106.441 84.221 107.328 84.4614C108.215 84.7018 108.953 85.0084 109.533 85.3897L108.721 86.8817C107.585 86.0942 106.234 85.7047 104.659 85.7047C103.474 85.7047 102.579 85.9119 101.974 86.3346C101.369 86.7573 101.07 87.3044 101.07 87.9841C101.07 88.5062 101.244 88.929 101.584 89.2439C101.924 89.5589 102.347 89.791 102.852 89.9402C103.358 90.0894 104.054 90.2386 104.949 90.396C106.052 90.6033 106.93 90.8188 107.593 91.026C108.257 91.2332 108.828 91.5979 109.293 92.1035C109.765 92.6091 109.997 93.3053 109.997 94.2005C109.997 95.4024 109.492 96.3638 108.489 97.0684C107.486 97.7729 106.093 98.1293 104.311 98.1293C103.192 98.1293 102.123 97.9718 101.103 97.6486V97.632Z" fill="black"/>
<path d="M113.404 80.7985C113.139 80.5332 113.015 80.2182 113.015 79.8535C113.015 79.4888 113.147 79.1987 113.404 78.9335C113.669 78.6683 113.993 78.5439 114.374 78.5439C114.755 78.5439 115.079 78.6683 115.344 78.9252C115.609 79.1822 115.733 79.4806 115.733 79.8287C115.733 80.21 115.601 80.5332 115.344 80.7985C115.079 81.0637 114.755 81.188 114.374 81.188C113.993 81.188 113.669 81.0554 113.404 80.7985ZM113.429 84.2051H115.286V97.989H113.429V84.2051Z" fill="black"/>
<path d="M131.622 85.6055C132.641 86.6084 133.155 88.0755 133.155 89.9901V97.9804H131.299V90.1725C131.299 88.7386 130.942 87.6527 130.221 86.8985C129.508 86.1442 128.48 85.7712 127.154 85.7712C125.671 85.7712 124.494 86.2105 123.632 87.0974C122.77 87.976 122.339 89.1944 122.339 90.7527V97.9804H120.482V84.1964H122.264V86.741C122.77 85.9038 123.474 85.249 124.369 84.7932C125.273 84.329 126.309 84.0969 127.502 84.0969C129.235 84.0969 130.611 84.6025 131.63 85.6055H131.622Z" fill="black"/>
<path d="M150.263 91.6642H138.734C138.841 93.0981 139.388 94.2502 140.383 95.1371C141.378 96.0157 142.638 96.4633 144.154 96.4633C145.008 96.4633 145.796 96.3141 146.508 96.0074C147.221 95.7008 147.843 95.2532 148.365 94.6564L149.409 95.8582C148.796 96.5959 148.033 97.1513 147.113 97.5325C146.193 97.9138 145.19 98.1127 144.088 98.1127C142.671 98.1127 141.419 97.8144 140.325 97.2093C139.231 96.6042 138.385 95.7754 137.772 94.7061C137.159 93.6369 136.852 92.435 136.852 91.0923C136.852 89.7495 137.142 88.5394 137.731 87.4784C138.319 86.4092 139.123 85.5804 140.143 84.9919C141.162 84.3951 142.314 84.105 143.591 84.105C144.867 84.105 146.011 84.4034 147.022 84.9919C148.033 85.5886 148.829 86.4092 149.409 87.4702C149.99 88.5311 150.271 89.733 150.271 91.1006L150.247 91.6808L150.263 91.6642ZM140.267 86.9646C139.364 87.81 138.858 88.9207 138.734 90.28H148.506C148.382 88.9207 147.876 87.81 146.973 86.9646C146.069 86.1191 144.95 85.6964 143.607 85.6964C142.265 85.6964 141.162 86.1191 140.267 86.9646Z" fill="black"/>
<path d="M154.574 97.632C153.555 97.3087 152.751 96.9026 152.179 96.4136L153.016 94.9465C153.596 95.4024 154.317 95.7754 155.187 96.0572C156.058 96.3473 156.97 96.4882 157.914 96.4882C159.174 96.4882 160.103 96.2892 160.708 95.8997C161.313 95.5101 161.611 94.9548 161.611 94.2337C161.611 93.7281 161.445 93.3302 161.114 93.0401C160.782 92.75 160.36 92.5345 159.854 92.3853C159.348 92.2361 158.677 92.0952 157.84 91.9543C156.721 91.7471 155.826 91.5316 155.138 91.3161C154.458 91.1006 153.878 90.7276 153.397 90.2054C152.916 89.6832 152.676 88.9538 152.676 88.0338C152.676 86.8817 153.157 85.9368 154.118 85.2074C155.08 84.478 156.414 84.105 158.13 84.105C159.017 84.105 159.912 84.221 160.799 84.4614C161.686 84.7018 162.423 85.0084 163.004 85.3897L162.191 86.8817C161.056 86.0942 159.705 85.7047 158.13 85.7047C156.945 85.7047 156.05 85.9119 155.444 86.3346C154.839 86.7573 154.541 87.3044 154.541 87.9841C154.541 88.5062 154.715 88.929 155.055 89.2439C155.395 89.5589 155.817 89.791 156.323 89.9402C156.829 90.0894 157.525 90.2386 158.42 90.396C159.522 90.6033 160.401 90.8188 161.064 91.026C161.727 91.2332 162.299 91.5979 162.763 92.1035C163.236 92.6091 163.468 93.3053 163.468 94.2005C163.468 95.4024 162.962 96.3638 161.959 97.0684C160.956 97.7729 159.564 98.1293 157.782 98.1293C156.663 98.1293 155.594 97.9718 154.574 97.6486V97.632Z" fill="black"/>
<path d="M167.388 97.6318C166.369 97.3085 165.565 96.9024 164.993 96.4133L165.83 94.9463C166.41 95.4021 167.131 95.7751 168.001 96.0569C168.872 96.347 169.784 96.4879 170.728 96.4879C171.988 96.4879 172.917 96.289 173.522 95.8994C174.127 95.5099 174.425 94.9545 174.425 94.2334C174.425 93.7278 174.259 93.33 173.928 93.0399C173.596 92.7498 173.174 92.5343 172.668 92.3851C172.162 92.2359 171.491 92.095 170.654 91.9541C169.535 91.7468 168.64 91.5313 167.952 91.3158C167.272 91.1003 166.692 90.7273 166.211 90.2052C165.73 89.683 165.49 88.9536 165.49 88.0335C165.49 86.8814 165.971 85.9365 166.932 85.2071C167.894 84.4777 169.228 84.1047 170.944 84.1047C171.831 84.1047 172.726 84.2208 173.613 84.4611C174.5 84.7015 175.237 85.0082 175.818 85.3895L175.005 86.8814C173.87 86.094 172.519 85.7044 170.944 85.7044C169.759 85.7044 168.863 85.9117 168.258 86.3344C167.653 86.7571 167.355 87.3041 167.355 87.9838C167.355 88.506 167.529 88.9287 167.869 89.2437C168.209 89.5586 168.631 89.7907 169.137 89.9399C169.643 90.0891 170.339 90.2383 171.234 90.3958C172.336 90.603 173.215 90.8185 173.878 91.0257C174.541 91.2329 175.113 91.5976 175.577 92.1033C176.05 92.6089 176.282 93.3051 176.282 94.2003C176.282 95.4021 175.776 96.3636 174.773 97.0681C173.77 97.7727 172.378 98.1291 170.596 98.1291C169.477 98.1291 168.408 97.9716 167.388 97.6483V97.6318Z" fill="black"/>
<path d="M200.095 98.2698L197.55 95.6506C195.992 97.3084 193.953 98.1372 191.417 98.1372C190.232 98.1372 189.171 97.9383 188.234 97.5487C187.297 97.1592 186.568 96.6038 186.046 95.8993C185.524 95.1948 185.258 94.3825 185.258 93.479C185.258 92.3766 185.606 91.3903 186.303 90.52C186.999 89.6497 188.192 88.7296 189.867 87.7682C188.996 86.8564 188.391 86.0856 188.06 85.4473C187.728 84.8091 187.563 84.1295 187.563 83.4166C187.563 82.2479 187.985 81.303 188.822 80.5902C189.66 79.8774 190.787 79.5127 192.204 79.5127C193.514 79.5127 194.55 79.8359 195.321 80.4825C196.092 81.129 196.473 82.0159 196.473 83.1514C196.473 84.0631 196.166 84.8754 195.553 85.6048C194.939 86.3259 193.887 87.1299 192.387 88.0002L197.418 93.1889C197.973 92.1943 198.388 91.0173 198.653 89.6497L200.17 90.1221C199.838 91.7633 199.299 93.1723 198.545 94.341L201.164 97.0431L200.087 98.2781L200.095 98.2698ZM196.456 94.5234L190.928 88.8374C189.477 89.658 188.474 90.4039 187.927 91.067C187.38 91.7301 187.098 92.4761 187.098 93.2967C187.098 94.2913 187.505 95.087 188.317 95.6921C189.129 96.2971 190.198 96.5955 191.525 96.5955C193.547 96.5955 195.196 95.9076 196.448 94.5234H196.456ZM190.074 81.5766C189.56 82.0324 189.303 82.6375 189.303 83.3835C189.303 83.9222 189.444 84.4361 189.726 84.9252C190.008 85.4142 190.555 86.0773 191.375 86.9144C192.702 86.1436 193.622 85.4888 194.127 84.95C194.633 84.4113 194.89 83.8145 194.89 83.168C194.89 82.4717 194.658 81.9164 194.185 81.502C193.713 81.0958 193.058 80.8886 192.221 80.8886C191.309 80.8886 190.604 81.1124 190.082 81.5683L190.074 81.5766Z" fill="black"/>
<path d="M210.97 78.5439H212.826V97.9808H210.97V78.5439Z" fill="black"/>
<path d="M217.991 80.7982C217.725 80.533 217.601 80.218 217.601 79.8533C217.601 79.4886 217.734 79.1985 217.991 78.9333C218.256 78.668 218.579 78.5437 218.96 78.5437C219.342 78.5437 219.665 78.668 219.93 78.925C220.195 79.1819 220.32 79.4803 220.32 79.8284C220.32 80.2097 220.187 80.533 219.93 80.7982C219.665 81.0634 219.342 81.1878 218.96 81.1878C218.579 81.1878 218.256 81.0552 217.991 80.7982ZM218.016 84.2048H219.872V97.9888H218.016V84.2048Z" fill="black"/>
<path d="M227.803 80.6403C227.389 81.0796 227.19 81.7261 227.19 82.5798V84.2044H231.434V85.7792H227.24V97.9884H225.383V85.7792H222.921V84.2044H225.383V82.5052C225.383 81.2454 225.748 80.2507 226.469 79.5213C227.19 78.7836 228.218 78.4189 229.544 78.4189C230.066 78.4189 230.572 78.4935 231.061 78.6427C231.55 78.7919 231.964 79.0074 232.296 79.281L231.666 80.6735C231.127 80.2176 230.439 79.9938 229.619 79.9938C228.798 79.9938 228.21 80.2093 227.795 80.6486L227.803 80.6403Z" fill="black"/>
<path d="M245.708 91.6642H234.178C234.286 93.0981 234.833 94.2502 235.828 95.1371C236.822 96.0157 238.082 96.4633 239.599 96.4633C240.453 96.4633 241.24 96.3141 241.953 96.0074C242.666 95.7008 243.288 95.2532 243.81 94.6564L244.854 95.8582C244.241 96.5959 243.478 97.1513 242.558 97.5325C241.638 97.9138 240.635 98.1127 239.533 98.1127C238.115 98.1127 236.864 97.8144 235.77 97.2093C234.676 96.6042 233.83 95.7754 233.217 94.7061C232.604 93.6369 232.297 92.435 232.297 91.0923C232.297 89.7495 232.587 88.5394 233.175 87.4784C233.764 86.4092 234.568 85.5804 235.587 84.9919C236.607 84.3951 237.759 84.105 239.036 84.105C240.312 84.105 241.456 84.4034 242.467 84.9919C243.478 85.5886 244.274 86.4092 244.854 87.4702C245.434 88.5311 245.716 89.733 245.716 91.1006L245.691 91.6808L245.708 91.6642ZM235.712 86.9646C234.808 87.81 234.303 88.9207 234.178 90.28H243.951C243.826 88.9207 243.321 87.81 242.417 86.9646C241.514 86.1191 240.395 85.6964 239.052 85.6964C237.709 85.6964 236.607 86.1191 235.712 86.9646Z" fill="black"/>
<path d="M250.017 97.6318C248.998 97.3085 248.193 96.9024 247.622 96.4133L248.459 94.9463C249.039 95.4021 249.76 95.7751 250.63 96.0569C251.501 96.347 252.412 96.4879 253.357 96.4879C254.617 96.4879 255.546 96.289 256.151 95.8994C256.756 95.5099 257.054 94.9545 257.054 94.2334C257.054 93.7278 256.888 93.33 256.557 93.0399C256.225 92.7498 255.802 92.5343 255.297 92.3851C254.791 92.2359 254.12 92.095 253.283 91.9541C252.164 91.7468 251.269 91.5313 250.581 91.3158C249.901 91.1003 249.321 90.7273 248.84 90.2052C248.359 89.683 248.119 88.9536 248.119 88.0335C248.119 86.8814 248.6 85.9365 249.561 85.2071C250.523 84.4777 251.857 84.1047 253.573 84.1047C254.46 84.1047 255.355 84.2208 256.242 84.4611C257.129 84.7015 257.866 85.0082 258.447 85.3895L257.634 86.8814C256.499 86.094 255.148 85.7044 253.573 85.7044C252.388 85.7044 251.492 85.9117 250.887 86.3344C250.282 86.7571 249.984 87.3041 249.984 87.9838C249.984 88.506 250.158 88.9287 250.498 89.2437C250.838 89.5586 251.26 89.7907 251.766 89.9399C252.272 90.0891 252.968 90.2383 253.863 90.3958C254.965 90.603 255.844 90.8185 256.507 91.0257C257.17 91.2329 257.742 91.5976 258.206 92.1033C258.679 92.6089 258.911 93.3051 258.911 94.2003C258.911 95.4021 258.405 96.3636 257.402 97.0681C256.399 97.7727 255.007 98.1291 253.225 98.1291C252.106 98.1291 251.037 97.9716 250.017 97.6483V97.6318Z" fill="black"/>
<path d="M269.603 97.1433C269.255 97.4583 268.824 97.6987 268.31 97.8644C267.797 98.0302 267.258 98.1131 266.702 98.1131C265.409 98.1131 264.415 97.765 263.719 97.0687C263.022 96.3725 262.674 95.3862 262.674 94.1097V85.7796H260.212V84.2048H262.674V81.1877H264.531V84.2048H268.725V85.7796H264.531V94.0102C264.531 94.8308 264.738 95.4525 265.144 95.8835C265.55 96.3145 266.147 96.5217 266.91 96.5217C267.291 96.5217 267.664 96.4637 268.02 96.3393C268.377 96.215 268.692 96.0409 268.949 95.8172L269.603 97.1516V97.1433Z" fill="black"/>
<path d="M284.3 84.2048L277.412 99.6382C276.856 100.931 276.21 101.851 275.472 102.39C274.735 102.929 273.856 103.202 272.828 103.202C272.165 103.202 271.543 103.095 270.971 102.887C270.4 102.68 269.894 102.365 269.479 101.942L270.342 100.55C271.038 101.246 271.875 101.594 272.853 101.594C273.483 101.594 274.022 101.42 274.461 101.072C274.909 100.724 275.323 100.127 275.704 99.2901L276.309 97.9557L270.151 84.2048H272.09L277.279 95.9167L282.468 84.2048H284.3Z" fill="black"/>
<path d="M286.919 78.5439H288.776V97.9808H286.919V78.5439Z" fill="black"/>
<path d="M305.966 91.664H294.436C294.544 93.0979 295.091 94.25 296.086 95.1369C297.08 96.0155 298.34 96.4631 299.857 96.4631C300.711 96.4631 301.498 96.3139 302.211 96.0072C302.924 95.7005 303.545 95.2529 304.068 94.6561L305.112 95.858C304.499 96.5957 303.736 97.151 302.816 97.5323C301.896 97.9136 300.893 98.1125 299.791 98.1125C298.373 98.1125 297.122 97.8141 296.028 97.209C294.934 96.604 294.088 95.7751 293.475 94.7059C292.861 93.6366 292.555 92.4348 292.555 91.092C292.555 89.7493 292.845 88.5391 293.433 87.4782C294.022 86.409 294.826 85.5801 295.845 84.9916C296.865 84.3948 298.017 84.1047 299.293 84.1047C300.57 84.1047 301.714 84.4031 302.725 84.9916C303.736 85.5884 304.532 86.409 305.112 87.4699C305.692 88.5309 305.974 89.7327 305.974 91.1003L305.949 91.6805L305.966 91.664ZM295.97 86.9643C295.066 87.8097 294.561 88.9204 294.436 90.2798H304.209C304.084 88.9204 303.579 87.8097 302.675 86.9643C301.772 86.1189 300.653 85.6961 299.31 85.6961C297.967 85.6961 296.865 86.1189 295.97 86.9643Z" fill="black"/>
<path d="M96.7029 56.3875H77.9539L74.3815 65.0408H64.8081L82.8028 24.667H92.0364L110.089 65.0408H100.284L96.7112 56.3875H96.7029ZM93.7604 49.2925L87.3615 33.8342L80.9627 49.2925H93.7687H93.7604Z" fill="black"/>
<path d="M140.019 65.0408L132.236 53.7932H123.641V65.0408H114.299V24.667H131.78C135.353 24.667 138.461 25.2638 141.097 26.4573C143.732 27.6509 145.763 29.3418 147.18 31.53C148.606 33.7182 149.319 36.3208 149.319 39.313C149.319 42.3052 148.598 44.8995 147.156 47.0711C145.713 49.2427 143.666 50.9088 141.014 52.0609L150.073 65.0408H140.036H140.019ZM137.657 34.0912C136.198 32.881 134.059 32.2759 131.258 32.2759H123.641V46.35H131.258C134.068 46.35 136.198 45.7367 137.657 44.5017C139.116 43.2749 139.845 41.5426 139.845 39.313C139.845 37.0833 139.116 35.3013 137.657 34.0912Z" fill="black"/>
<path d="M164.479 32.2764H151.557V24.6592H186.742V32.2764H173.82V65.0413H164.479V32.2764Z" fill="black"/>
<path d="M191.766 24.667H201.107V65.0408H191.766V24.667Z" fill="black"/>
<path d="M247.424 65.0411L247.366 40.8135L235.48 60.7725H231.269L219.441 41.3356V65.0411H210.672V24.6672H218.405L233.515 49.7569L248.402 24.6672H256.077L256.193 65.0411H247.424Z" fill="black"/>
<path d="M292.365 56.3875H273.617L270.044 65.0408H260.471L278.465 24.667H287.699L305.752 65.0408H295.946L292.374 56.3875H292.365ZM289.423 49.2925L283.016 33.8342L276.609 49.2925H289.415H289.423Z" fill="black"/>
<path d="M35.1028 5.4126L48.7128 12.1098V98.8999L34.9536 59.8688L35.1028 5.4126Z" fill="#FFC231"/>
<path d="M13.7592 9.74683L0 22.3372V98.3522L13.7592 58.9978V9.74683Z" fill="#FFC231"/>
<path d="M34.3064 92.0532H14.4965L9.75537 103.193H39.1221L34.3064 92.0532Z" fill="#FFC231"/>
<path d="M31.2816 3.39005L24.4021 0L17.5225 6.30764V81.1621L24.4021 83.0354L31.2816 81.1621V3.39005Z" fill="#FFC231"/>
</svg>
